<svg width="16" height="16" viewBox="0 0 16 16" fill="none" xmlns="http://www.w3.org/2000/svg">
<path d="M14.5914 7.8662C14.5373 6.08719 13.8814 4.5767 12.6239 3.33472C11.3663 2.0926 9.83709 1.44479 8.03615 1.3913V0C9.13171 0.0238068 10.1574 0.245565 11.1132 0.665275C12.0691 1.08514 12.9041 1.64761 13.6181 2.3527C14.3319 3.05793 14.9013 3.88259 15.3262 4.82667C15.7513 5.7709 15.9759 6.78408 16 7.8662H14.5914ZM10.8352 7.8662C10.7811 7.12294 10.4891 6.48819 9.95933 5.96197C9.42955 5.4359 8.78849 5.14906 8.03615 5.10145V3.71014C9.17866 3.75776 10.152 4.18017 10.9561 4.97739C11.7604 5.77476 12.1896 6.7377 12.2438 7.8662H10.8352ZM14.9687 16C13.199 16 11.4212 15.5936 9.63512 14.7808C7.8492 13.9679 6.20681 12.8213 4.70793 11.341C3.21515 9.86048 2.0573 8.23961 1.23438 6.47838C0.41146 4.7173 0 2.96278 0 1.21484C0 0.93658 0.093905 0.70315 0.281715 0.514551C0.469525 0.326106 0.704287 0.231884 0.986002 0.231884H4.04871C4.28582 0.231884 4.495 0.308329 4.67623 0.461218C4.85747 0.613952 4.97274 0.802705 5.02204 1.02748L5.56035 3.75652C5.5976 4.00974 5.58977 4.22732 5.53687 4.40928C5.48382 4.59123 5.38866 4.74404 5.2514 4.86771L3.08267 6.95304C3.43168 7.58439 3.83046 8.18164 4.27902 8.74481C4.72741 9.30783 5.2129 9.84557 5.73548 10.358C6.25071 10.8671 6.79849 11.3398 7.37882 11.7762C7.95915 12.2126 8.58581 12.6187 9.2588 12.9946L11.366 10.8951C11.513 10.744 11.6909 10.6381 11.8999 10.5774C12.1087 10.5168 12.3257 10.502 12.5509 10.5329L15.1584 11.0574C15.3955 11.1192 15.589 11.2387 15.7389 11.4159C15.8889 11.593 15.9638 11.794 15.9638 12.0188V15.0261C15.9638 15.3043 15.8685 15.5362 15.6777 15.7217C15.4867 15.9072 15.2504 16 14.9687 16ZM2.41618 5.63664L4.09214 4.05264C4.12219 4.02883 4.14176 3.99613 4.15084 3.95455C4.15991 3.91297 4.15843 3.87432 4.14637 3.83861L3.73812 1.7658C3.72607 1.71834 3.70502 1.6827 3.67497 1.6589C3.64492 1.63509 3.60579 1.62319 3.55759 1.62319H1.54943C1.51328 1.62319 1.48315 1.63509 1.45905 1.6589C1.4351 1.6827 1.42313 1.71246 1.42313 1.74817C1.47118 2.38199 1.57619 3.02586 1.73818 3.67977C1.90001 4.33384 2.12601 4.98613 2.41618 5.63664ZM10.5859 13.6526C11.2083 13.9392 11.8575 14.1584 12.5335 14.31C13.2096 14.4615 13.8414 14.5516 14.4287 14.5802C14.4649 14.5802 14.495 14.5683 14.5191 14.5445C14.5432 14.5207 14.5553 14.4909 14.5553 14.4552V12.5039C14.5553 12.4563 14.5432 12.4176 14.5191 12.3879C14.495 12.3583 14.4589 12.3375 14.4109 12.3256L12.4389 11.9295C12.4027 11.9176 12.3711 11.9161 12.344 11.9251C12.317 11.9341 12.2883 11.9534 12.2581 11.9831L10.5859 13.6526Z" fill="#D91918"/>
</svg>
